<svg xmlns="http://www.w3.org/2000/svg" viewBox="0 0 300 360">
  <!-- Penguin Sprite (Default) -->
  <g id="penguin">
    <g id="penguin-down">
      <ellipse cx="30" cy="35" rx="20" ry="25" fill="#333333"/>
      <ellipse cx="30" cy="35" rx="15" ry="20" fill="#ffffff"/>
      <circle cx="30" cy="15" r="12" fill="#333333"/>
      <circle cx="26" cy="12" r="2" fill="#ffffff"/>
      <circle cx="34" cy="12" r="2" fill="#ffffff"/>
      <circle cx="26" cy="12" r="1" fill="#000000"/>
      <circle cx="34" cy="12" r="1" fill="#000000"/>
      <polygon points="30,16 26,20 34,20" fill="#ff9933"/>
      <ellipse cx="10" cy="35" rx="5" ry="15" fill="#333333" transform="rotate(-20,10,35)"/>
      <ellipse cx="50" cy="35" rx="5" ry="15" fill="#333333" transform="rotate(20,50,35)"/>
      <ellipse cx="23" cy="58" rx="5" ry="2" fill="#ff9933"/>
      <ellipse cx="37" cy="58" rx="5" ry="2" fill="#ff9933"/>
    </g>
    <g id="penguin-up" transform="translate(100, 0)">
      <ellipse cx="30" cy="35" rx="20" ry="25" fill="#333333"/>
      <ellipse cx="30" cy="35" rx="15" ry="20" fill="#ffffff"/>
      <circle cx="30" cy="15" r="12" fill="#333333"/>
      <circle cx="26" cy="12" r="2" fill="#ffffff"/>
      <circle cx="34" cy="12" r="2" fill="#ffffff"/>
      <circle cx="26" cy="12" r="1" fill="#000000"/>
      <circle cx="34" cy="12" r="1" fill="#000000"/>
      <polygon points="30,14 26,18 34,18" fill="#ff9933"/>
      <ellipse cx="10" cy="30" rx="5" ry="12" fill="#333333" transform="rotate(-40,10,30)"/>
      <ellipse cx="50" cy="30" rx="5" ry="12" fill="#333333" transform="rotate(40,50,30)"/>
      <ellipse cx="23" cy="58" rx="5" ry="2" fill="#ff9933"/>
      <ellipse cx="37" cy="58" rx="5" ry="2" fill="#ff9933"/>
    </g>
    <g id="penguin-left" transform="translate(0, 80)">
      <ellipse cx="30" cy="35" rx="18" ry="25" fill="#333333"/>
      <ellipse cx="26" cy="35" rx="12" ry="20" fill="#ffffff"/>
      <circle cx="30" cy="15" r="12" fill="#333333"/>
      <circle cx="26" cy="12" r="2" fill="#ffffff"/>
      <circle cx="26" cy="12" r="1" fill="#000000"/>
      <polygon points="24,16 18,18 22,22" fill="#ff9933"/>
      <ellipse cx="15" cy="35" rx="5" ry="15" fill="#333333" transform="rotate(-20,15,35)"/>
      <ellipse cx="25" cy="58" rx="5" ry="2" fill="#ff9933"/>
      <ellipse cx="35" cy="58" rx="5" ry="2" fill="#ff9933"/>
    </g>
    <g id="penguin-right" transform="translate(100, 80)">
      <ellipse cx="30" cy="35" rx="18" ry="25" fill="#333333"/>
      <ellipse cx="34" cy="35" rx="12" ry="20" fill="#ffffff"/>
      <circle cx="30" cy="15" r="12" fill="#333333"/>
      <circle cx="34" cy="12" r="2" fill="#ffffff"/>
      <circle cx="34" cy="12" r="1" fill="#000000"/>
      <polygon points="36,16 42,18 38,22" fill="#ff9933"/>
      <ellipse cx="45" cy="35" rx="5" ry="15" fill="#333333" transform="rotate(20,45,35)"/>
      <ellipse cx="25" cy="58" rx="5" ry="2" fill="#ff9933"/>
      <ellipse cx="35" cy="58" rx="5" ry="2" fill="#ff9933"/>
    </g>
  </g>

  <!-- Polar Bear Sprite -->
  <g id="polarBear" transform="translate(200, 0)">
    <g id="polarBear-down">
      <ellipse cx="30" cy="40" rx="25" ry="20" fill="#f0f0f0"/>
      <circle cx="30" cy="15" r="12" fill="#f0f0f0"/>
      <circle cx="22" cy="8" r="4" fill="#f0f0f0"/>
      <circle cx="38" cy="8" r="4" fill="#f0f0f0"/>
      <circle cx="22" cy="8" r="2" fill="#ffcccc"/>
      <circle cx="38" cy="8" r="2" fill="#ffcccc"/>
      <circle cx="25" cy="14" r="2" fill="#000000"/>
      <circle cx="35" cy="14" r="2" fill="#000000"/>
      <ellipse cx="30" cy="18" rx="4" ry="2" fill="#666666"/>
      <ellipse cx="20" cy="58" rx="6" ry="3" fill="#f0f0f0"/>
      <ellipse cx="40" cy="58" rx="6" ry="3" fill="#f0f0f0"/>
      <ellipse cx="15" cy="35" rx="5" ry="10" fill="#f0f0f0" transform="rotate(-20,15,35)"/>
      <ellipse cx="45" cy="35" rx="5" ry="10" fill="#f0f0f0" transform="rotate(20,45,35)"/>
    </g>
  </g>

  <!-- Seal Sprite -->
  <g id="seal" transform="translate(0, 160)">
    <g id="seal-down">
      <ellipse cx="30" cy="40" rx="28" ry="18" fill="#a0a0a0"/>
      <circle cx="30" cy="20" r="15" fill="#a0a0a0"/>
      <circle cx="25" cy="15" r="2.5" fill="#000000"/>
      <circle cx="35" cy="15" r="2.5" fill="#000000"/>
      <circle cx="26" cy="14" r="0.8" fill="#ffffff"/>
      <circle cx="36" cy="14" r="0.8" fill="#ffffff"/>
      <ellipse cx="30" cy="22" rx="5" ry="3" fill="#666666"/>
      <line x1="32" y1="22" x2="42" y2="18" stroke="#d0d0d0" stroke-width="0.8"/>
      <line x1="32" y1="23" x2="42" y2="22" stroke="#d0d0d0" stroke-width="0.8"/>
      <line x1="32" y1="24" x2="42" y2="26" stroke="#d0d0d0" stroke-width="0.8"/>
      <line x1="28" y1="22" x2="18" y2="18" stroke="#d0d0d0" stroke-width="0.8"/>
      <line x1="28" y1="23" x2="18" y2="22" stroke="#d0d0d0" stroke-width="0.8"/>
      <line x1="28" y1="24" x2="18" y2="26" stroke="#d0d0d0" stroke-width="0.8"/>
      <ellipse cx="15" cy="45" rx="8" ry="4" fill="#a0a0a0" transform="rotate(-30,15,45)"/>
      <ellipse cx="45" cy="45" rx="8" ry="4" fill="#a0a0a0" transform="rotate(30,45,45)"/>
      <ellipse cx="30" cy="58" rx="10" ry="5" fill="#a0a0a0"/>
    </g>
  </g>

  <!-- Whale Sprite -->
  <g id="whale" transform="translate(100, 160)">
    <g id="whale-down">
      <ellipse cx="30" cy="30" rx="28" ry="15" fill="#3d5a80"/>
      <circle cx="55" cy="30" r="15" fill="#3d5a80"/>
      <circle cx="48" cy="25" r="3" fill="#000000"/>
      <circle cx="49" cy="24" r="1" fill="#ffffff"/>
      <path d="M40,35 Q45,40 55,38" fill="none" stroke="#2a4060" stroke-width="1"/>
      <path d="M25,15 Q20,5 10,10" fill="#3d5a80"/>
      <ellipse cx="15" cy="30" rx="5" ry="10" fill="#3d5a80" transform="rotate(-20,15,30)"/>
      <path d="M2,30 L10,20 L10,40 Z" fill="#3d5a80"/>
      <ellipse cx="45" cy="15" rx="2" ry="1" fill="#6699cc"/>
    </g>
  </g>

  <!-- Dolphin Sprite -->
  <g id="dolphin" transform="translate(200, 160)">
    <g id="dolphin-down">
      <ellipse cx="30" cy="30" rx="25" ry="10" fill="#6c8ebf"/>
      <circle cx="50" cy="30" r="12" fill="#6c8ebf"/>
      <circle cx="48" cy="26" r="2" fill="#000000"/>
      <circle cx="49" cy="25" r="0.7" fill="#ffffff"/>
      <path d="M55,30 Q60,35 55,40" fill="#6c8ebf"/>
      <path d="M30,20 L25,5 L35,20 Z" fill="#6c8ebf"/>
      <path d="M20,30 L10,40 L20,35 Z" fill="#6c8ebf"/>
      <path d="M20,30 L10,20 L20,25 Z" fill="#6c8ebf"/>
      <path d="M5,30 L15,22 L15,38 Z" fill="#6c8ebf"/>
      <path d="M45,33 Q50,35 55,33" fill="none" stroke="#4a6c9f" stroke-width="1"/>
    </g>
  </g>
</svg>