<svg xmlns="http://www.w3.org/2000/svg" viewBox="0 0 1000 600">
  <!-- Sky background - slight burgundy tint -->
  <rect width="100%" height="100%" fill="#dcc6d0"/>
  
  <!-- Snow-covered mountains with burgundy hints -->
  <polygon points="0,200 100,100 200,180 300,90 400,150 500,70 600,160 700,90 800,120 900,80 1000,150 1000,600 0,600" fill="#f0f0f5"/>
  
  <!-- Ice ponds with burgundy tint -->
  <ellipse cx="200" cy="400" rx="100" ry="60" fill="#c9adb8"/>
  <ellipse cx="600" cy="450" rx="120" ry="70" fill="#c9adb8"/>
  <ellipse cx="850" cy="350" rx="80" ry="50" fill="#c9adb8"/>
  
  <!-- Snow drifts -->
  <path d="M0,300 Q100,280 200,300 T400,310 T600,290 T800,310 T1000,290 L1000,600 L0,600 Z" fill="#ffffff"/>
  
  <!-- Trees with burgundy trunks -->
  <g transform="translate(350,280)">
    <rect x="-5" y="0" width="10" height="20" fill="#8c1b33"/>
    <polygon points="0,-40 -20,0 20,0" fill="#7d9f78"/>
    <polygon points="0,-60 -15,-20 15,-20" fill="#7d9f78"/>
    <polygon points="0,-75 -10,-40 10,-40" fill="#7d9f78"/>
  </g>
  
  <g transform="translate(750,260)">
    <rect x="-5" y="0" width="10" height="20" fill="#8c1b33"/>
    <polygon points="0,-40 -20,0 20,0" fill="#7d9f78"/>
    <polygon points="0,-60 -15,-20 15,-20" fill="#7d9f78"/>
    <polygon points="0,-75 -10,-40 10,-40" fill="#7d9f78"/>
  </g>
  
  <!-- Snow patches -->
  <circle cx="150" cy="500" r="30" fill="#ffffff"/>
  <circle cx="650" cy="520" r="40" fill="#ffffff"/>
  <circle cx="450" cy="480" r="25" fill="#ffffff"/>
  <circle cx="850" cy="500" r="35" fill="#ffffff"/>
  
  <!-- Burgundy accents scattered throughout -->
  <circle cx="300" cy="350" r="8" fill="#a81e39" opacity="0.2"/>
  <circle cx="420" cy="400" r="12" fill="#a81e39" opacity="0.15"/>
  <circle cx="700" cy="380" r="10" fill="#a81e39" opacity="0.2"/>
  
  <!-- Small burgundy bushes -->
  <circle cx="280" cy="320" r="10" fill="#a81e39" opacity="0.3"/>
  <circle cx="550" cy="340" r="8" fill="#a81e39" opacity="0.3"/>
  <circle cx="800" cy="320" r="12" fill="#a81e39" opacity="0.3"/>
  
  <!-- Subtle overlay pattern -->
  <rect width="100%" height="100%" fill="url(#pixelPattern)" opacity="0.05"/>
  
  <defs>
    <pattern id="pixelPattern" patternUnits="userSpaceOnUse" width="8" height="8">
      <rect width="8" height="8" fill="#a81e39" opacity="0.1"/>
      <rect width="4" height="4" fill="#ffffff" opacity="0.05"/>
      <rect x="4" y="4" width="4" height="4" fill="#ffffff" opacity="0.05"/>
    </pattern>
  </defs>
</svg>