<svg xmlns="http://www.w3.org/2000/svg" viewBox="0 0 1000 600">
  <!-- Sky background -->
  <rect width="100%" height="100%" fill="#c6e4f5"/>
  
  <!-- Snow-covered mountains -->
  <polygon points="0,200 100,100 200,180 300,90 400,150 500,70 600,160 700,90 800,120 900,80 1000,150 1000,600 0,600" fill="#f0f5f9"/>
  
  <!-- Ice ponds/water -->
  <ellipse cx="200" cy="400" rx="100" ry="60" fill="#a8d5e5"/>
  <ellipse cx="600" cy="450" rx="120" ry="70" fill="#a8d5e5"/>
  <ellipse cx="850" cy="350" rx="80" ry="50" fill="#a8d5e5"/>
  
  <!-- Snow drifts -->
  <path d="M0,300 Q100,280 200,300 T400,310 T600,290 T800,310 T1000,290 L1000,600 L0,600 Z" fill="#ffffff"/>
  
  <!-- Trees -->
  <g transform="translate(350,280)">
    <rect x="-5" y="0" width="10" height="20" fill="#705344"/>
    <polygon points="0,-40 -20,0 20,0" fill="#7d9f78"/>
    <polygon points="0,-60 -15,-20 15,-20" fill="#7d9f78"/>
    <polygon points="0,-75 -10,-40 10,-40" fill="#7d9f78"/>
  </g>
  
  <g transform="translate(750,260)">
    <rect x="-5" y="0" width="10" height="20" fill="#705344"/>
    <polygon points="0,-40 -20,0 20,0" fill="#7d9f78"/>
    <polygon points="0,-60 -15,-20 15,-20" fill="#7d9f78"/>
    <polygon points="0,-75 -10,-40 10,-40" fill="#7d9f78"/>
  </g>
  
  <!-- Snow patches -->
  <circle cx="150" cy="500" r="30" fill="#ffffff"/>
  <circle cx="650" cy="520" r="40" fill="#ffffff"/>
  <circle cx="450" cy="480" r="25" fill="#ffffff"/>
  <circle cx="850" cy="500" r="35" fill="#ffffff"/>
  
  <!-- Pixel-art style overlay -->
  <rect width="100%" height="100%" fill="url(#pixelPattern)" opacity="0.05"/>
  
  <defs>
    <pattern id="pixelPattern" patternUnits="userSpaceOnUse" width="8" height="8">
      <rect width="8" height="8" fill="#000000" opacity="0.1"/>
      <rect width="4" height="4" fill="#ffffff" opacity="0.1"/>
      <rect x="4" y="4" width="4" height="4" fill="#ffffff" opacity="0.1"/>
    </pattern>
  </defs>
</svg>